<?xml version="1.0" encoding="UTF-8"?>
<svg id="Layer_1" xmlns="http://www.w3.org/2000/svg" version="1.1" viewBox="0 0 151 55">
  <!-- Generator: Adobe Illustrator 30.0.0, SVG Export Plug-In . SVG Version: 2.1.1 Build 123)  -->
  <defs>
    <style>
      .st0 {
        fill: #fff;
      }
    </style>
  </defs>
  <path class="st0" d="M2.6,34.5c.9,0,1.5-.3,1.5-2v-7.6H2v-4.3h10.4c5.3,0,7.2,2.2,7.2,8v10h-5v-9.6c0-3-.6-4.1-3.5-4.1h-2.3v8.9c0,3.9-1.9,5.1-4.4,5.1-1.4,0-2.6-.2-3.8-.5l.5-4c.5.2.9.2,1.3.2h0Z"/>
  <path class="st0" d="M23.4,16.2h3.7l-2.1,7.9h-2.9l1.3-7.9ZM28.7,16.2h3.7l-2.1,7.9h-2.9l1.3-7.9Z"/>
  <path class="st0" d="M39.6,29.3c-.7.6-.9,1.4-.9,2.7v6.3h-5v-7.1c0-2.8,1.2-4.5,3.4-5.6l-3.4-5h5.7l5,7.5c1.5,0,1.9-.9,1.9-2.4v-5.1c0,0,5,0,5,0v6.3c0,2.7-1.7,4.3-4.5,4.6l4.6,6.8h-5.8l-6-9h0Z"/>
  <path class="st0" d="M54.5,33.8h5.6c3.3,0,4.6-1.4,4.6-4.5s-1.3-5.1-4-5.1-2.8.6-2.8,2,.9,1.9,3.1,1.8v3.4c-4.2.5-7.9-.4-7.9-5.2s3.2-6.3,8.1-6.3,8.4,2.8,8.4,9.2-2.8,9.1-9.6,9.1h-5.6v-4.4h0Z"/>
  <path class="st0" d="M80,38.3l.8-4.6c.6.2,1.3.4,2.1.4,1.6,0,2.4-.8,2.4-3.7s-.7-5.9-2.6-5.9-2.5,1.2-3.5,4.5l-2.9,9.6h-5.2l2.9-9.4-3.3-9.1h4.9l1.3,3.7c1.5-2.8,3.5-3.9,6.2-3.9,5.1,0,7.2,4,7.2,11s-1.8,8-6.8,8-2.6-.2-3.7-.5h0Z"/>
  <path class="st0" d="M.7,42.5h1.3c.1.4.1.8.1,1.2v6.6H.8v-6.6c0-.5,0-.9-.1-1.2Z"/>
  <path class="st0" d="M3.5,42.5h1.3c.1.4.1.9.1,1.5v4.8h-1.3v-4.8c0-.6,0-1.2-.2-1.5h0Z"/>
  <path class="st0" d="M6.5,42.5h3.2c1.8,0,2.5.7,2.5,2.7v3.6h-1.3v-3.4c0-1.4-.4-1.9-1.5-1.9h-1.7v5.3h-1.3v-6.3h0Z"/>
  <path class="st0" d="M13.6,45.6v-3.1h1.3v3.1c0,1.4.6,2.2,1.8,2.2s1.8-.8,1.8-2.2-.3-2.1-1.1-2.1-.7.1-1,.3l-.3-1c.4-.2.9-.4,1.5-.4,1.5,0,2.2.9,2.2,3.2s-1.1,3.3-3,3.3-3.1-1.1-3.1-3.3h0Z"/>
  <path class="st0" d="M20.9,42.5h1.3c.1.4.2.9.2,1.5v2h-1.3v-2c0-.6,0-1.1-.2-1.5Z"/>
  <path class="st0" d="M26,43.5c-.7,0-1.2.1-2,.3l-.2-1.1c.9-.3,1.7-.4,2.6-.4,1.5,0,2.4.7,2.4,2.4v2.9h.8v1.1h-5.7v-1.1h3.6v-2.6c0-1.1-.5-1.5-1.4-1.5h0Z"/>
  <path class="st0" d="M30.8,48.6l.3-1.1c.4.2.8.2,1.2.2,1,0,1.4-.5,1.4-1.5v-2.7h-3.8v-2h1.2v1h3.9v4c0,1.6-.9,2.4-2.5,2.4s-1.2-.1-1.7-.3Z"/>
  <path class="st0" d="M39.1,42.5h1.3c.1.4.1.8.1,1.2v6.6h-1.3v-6.6c0-.5,0-.9-.1-1.2Z"/>
  <path class="st0" d="M42,42.5h1.3c.1.4.1.9.1,1.5v4.8h-1.3v-4.8c0-.6,0-1.2-.2-1.5h0Z"/>
  <path class="st0" d="M46.4,43.6h-1.6v-1.1h3.6v1.1c-1.5,0-1.7.7-1.4,2.4l.4,2.9h-1.3l-.4-2.8c-.2-1.4,0-2.2.7-2.4h0Z"/>
  <path class="st0" d="M49.6,42.5h3.2c1.8,0,2.5.7,2.5,2.7v3.6h-1.3v-3.4c0-1.4-.4-1.9-1.5-1.9h-1.7v5.3h-1.3v-6.3h0Z"/>
  <path class="st0" d="M59.6,42.5h3.3c1.8,0,2.5.8,2.5,2.7v3.6h-5.8v-6.3h0ZM64.1,47.7v-2.5c0-1.2-.4-1.7-1.5-1.7h-1.8v4.2h3.2Z"/>
  <path class="st0" d="M66.6,42.5h1.3c.1.4.2.9.2,1.5v2h-1.3v-2c0-.6,0-1.1-.2-1.5Z"/>
  <path class="st0" d="M71.2,43.5c-.6,0-1.1.1-1.7.3l-.2-1c.6-.2,1.4-.3,2.1-.3,2.1,0,2.9.9,2.9,3.2,0,2.4-.8,3.3-2.9,3.3s-1.5-.1-2.1-.3l.2-1c.6.2,1.1.2,1.7.2,1.3,0,1.8-.6,1.9-2.2,0-1.6-.5-2.2-1.9-2.2Z"/>
  <path class="st0" d="M75.9,47.7h1.9c1.5,0,2.1-.6,2.1-2s-.6-2.2-1.8-2.2-1.4.3-1.4,1.1.5,1.1,1.6.9v.9c-1.6.2-2.8-.2-2.8-1.8s1.1-2.2,2.8-2.2,2.9,1,2.9,3.3-1,3.2-3.4,3.2h-1.9v-1.1h0Z"/>
  <path class="st0" d="M82.4,42.5h1.3c.1.4.1.9.1,1.5v4.8h-1.3v-4.8c0-.6,0-1.2-.2-1.5h0Z"/>
  <path class="st0" d="M88.2,43.6h-2.9v-1.1h3.4c1.6,0,2.3.6,2.3,2.7v3.6h-1.3v-3.4c0-1.4-.4-1.9-1.5-1.9h0ZM85.5,46.4c0-.5,0-1,.2-1.3l1.2.2c0,.3-.1.6-.1,1.1v2.4h-1.3v-2.4h0Z"/>
  <g>
    <path class="st0" d="M150.7,50s-1.4-4.9-1.7-5.7l-13.8-9.9h0L123.6,1.7h0s-.1-.4-.1-.4l-11.4,33.3h0l-14.2,9.8c-.2.8-1.7,5.6-1.7,5.6h0s0,0,0,0l18.9-13,.2-.6,8.2-24,8.7,24.5h0l18.5,13.2h0Z"/>
    <path class="st0" d="M150.7,50s-1.4-4.9-1.7-5.7l-13.8-9.9h0L123.6,1.7h0s-.1-.4-.1-.4l-11.4,33.3h0l-14.2,9.8c-.2.8-1.7,5.6-1.7,5.6h0s0,0,0,0l18.9-13,.2-.6,8.2-24,8.7,24.5h0l18.5,13.2h0Z"/>
    <g>
      <path class="st0" d="M138.8,46.2c-.8,1.3-1.8,2.6-2.9,3.6h12.4s-5.7-3.6-5.7-3.6h-3.8Z"/>
      <path class="st0" d="M125.8,49.9c2.6-.5,5-1.8,6.8-3.6h-19c1.8,1.8,4.2,3.1,6.8,3.6h5.3Z"/>
      <path class="st0" d="M107.4,46.2h-3.6l-5,3.6h11s0,0,0,0h.4c-1.1-1.1-2.1-2.3-2.9-3.6Z"/>
    </g>
    <g>
      <path class="st0" d="M133.1,26.6c2.2,2.2,3.7,5.2,4.1,8.5l3.7,2.6c0-.4,0-.7,0-1.1,0-7-4-13-9.9-15.9l2.1,5.9Z"/>
      <path class="st0" d="M123.1,22.5c1.2,0,2.3.1,3.4.4l-1.4-3.9c-.7,0-1.4-.1-2-.1s-.8,0-1.2,0l-1.3,3.8c.8-.1,1.7-.2,2.5-.2Z"/>
      <path class="st0" d="M109,35.9c.2-4.2,2.3-7.9,5.5-10.4l1.8-5.2c-6.4,2.7-10.9,9-10.9,16.4s0,1.1,0,1.7l3.6-2.5Z"/>
      <path class="st0" d="M136.6,40.8c-1.8,5.8-7.2,10-13.5,10s-11.4-4-13.3-9.5l-3.1,2.1c2.7,6.4,9,11,16.4,11s14-4.7,16.6-11.4l-3.1-2.2Z"/>
    </g>
  </g>
</svg>